<?xml version="1.0" encoding="UTF-8"?><svg xmlns="http://www.w3.org/2000/svg" viewBox="0 0 2471.94 2155.85"><defs><style>.d{fill:#8b8a94;}</style></defs><g id="a"/><g id="b"><g id="c"><g><path class="d" d="M1132.14,.08c267.99,1.04,518.75,63.45,743.45,213.96,159.16,106.61,282.7,243.5,347.59,427.24,38.72,109.64,49.91,222.04,29.71,336.92-3.28,18.66,1.56,30.61,16.88,42.98,102.64,82.91,174.33,185.62,195.96,318.42,21.3,130.74-13.04,247.78-90.32,353.42-42.93,58.68-95.66,107.39-156.88,146.34-16.68,10.62-19.48,21.5-15.27,39.46,13.1,55.85,24.76,112.03,36.83,168.11,8.6,39.97-4.89,75.61-35.9,95.61-30.59,19.73-68.57,17.58-101.56-7.02-69.18-51.58-138.14-103.45-206.83-155.67-12.82-9.75-24.82-12.4-41.58-10.8-261.94,24.99-498.83-30.65-694.12-218.47-6.94-6.67-18.44-11.14-28.2-11.94-68.21-5.63-136.48-10.87-204.83-14.05-12.54-.58-27.51,6.15-38.04,13.97-117.44,87.28-233.97,175.8-351.31,263.23-62.78,46.79-143.78,22.38-165.26-50.23-5.29-17.87-5.8-39.03-2.1-57.38,20.86-103.36,43.02-206.48,66.37-309.3,4.59-20.2-.25-29.66-17.35-40.36-153.81-96.25-280.97-218.76-354-387.42C-51.97,886.03-8.86,633.97,174.56,407.36,331.45,213.53,542.15,103.2,780.69,42.37,895.86,13,1013.1-1.19,1132.14,.08ZM469.09,1924.82c10.44-7.5,15.9-11.27,21.21-15.26,121.1-90.91,241.76-182.41,363.8-272.05,15.52-11.4,39.43-20.82,57.4-18.01,198.54,30.97,394.64,21.69,587.55-34.06,210.38-60.8,396.14-163.61,528.79-342.69,155.73-210.25,177.48-435.51,51.86-668.19-76.59-141.85-194.42-244.56-334.87-320.01-302.22-162.34-621.52-190.89-951.43-108.62-197.32,49.2-371.56,142.44-511.63,293.39-215.64,232.39-236.1,542.23-51.81,795.67,74.88,102.97,170.96,181.99,281.27,244.56,39.89,22.63,45.35,36.76,35.86,80.86-25.7,119.47-51.16,238.99-77.98,364.41Zm827.61-191.97c9.71,7.2,16.84,13.03,24.48,18.07,167.7,110.6,352.64,138.49,548.14,112.31,24.85-3.33,44.3,.69,63.58,15.5,48.95,37.59,98.43,74.49,147.78,111.56,14.96,11.24,30.18,22.13,49.58,36.33-13.58-62.78-25.82-119.53-38.14-176.25-7.82-35.97,.1-52.24,30.62-72.37,33.79-22.3,68.95-43.6,98.87-70.5,112.92-101.53,173.4-224.05,137.1-379.38-20.44-87.48-70.92-157.02-136.64-213.75-183.48,393.21-519.07,554.56-925.36,618.5Z"/><path class="d" d="M1127.26,570.67c-165.05,0-330.11-.18-495.16,.18-25.91,.06-46.89-6.59-57.52-32.27-14.36-34.68,11.19-69.7,51.68-69.87,85.49-.37,170.99-.18,256.49,0,244.63,.49,489.26,1.07,733.89,1.64,8.46,.02,16.98-.35,25.37,.52,31.24,3.24,51.81,24.51,51.24,52.4-.56,27.67-22.42,49.23-53.06,50.77-20.27,1.02-40.62,.28-60.94,.28-150.67,0-301.33,0-452,0,0-1.21,0-2.43,0-3.64Z"/><path class="d" d="M1134.93,818.93c166.74,0,333.49-.06,500.23,.05,34.71,.02,57.55,19.96,58.08,49.98,.56,31.22-22.35,51.49-58.9,51.46-332.66-.27-665.32-.6-997.98-1.17-10.83-.02-22.4-.94-32.33-4.78-21.68-8.38-33.53-24.91-32.8-49.01,.7-22.94,12.67-38.58,33.6-45.83,10.86-3.76,23.24-4.22,34.94-4.24,165.05-.25,330.1-.17,495.15-.17,0,1.24,0,2.47,0,3.71Z"/><path class="d" d="M1134.86,1164.32c166.74,0,333.47-.06,500.21,.05,34.7,.02,57.63,19.96,58.18,49.88,.58,31.04-22.6,51.59-58.9,51.56-332.65-.27-665.29-.6-997.94-1.17-10.83-.02-22.4-.93-32.33-4.76-21.69-8.36-33.54-24.88-32.84-48.98,.67-22.94,12.64-38.59,33.56-45.86,10.85-3.77,23.24-4.24,34.94-4.26,165.04-.25,330.08-.17,495.12-.17,0,1.24,0,2.47,0,3.71Z"/></g></g></g></svg>