<?xml version="1.0" encoding="UTF-8"?><svg xmlns="http://www.w3.org/2000/svg" viewBox="0 0 2146.43 2144.08"><defs><style>.d{fill:#8b8a94;}</style></defs><g id="a"/><g id="b"><g id="c"><g><path class="d" d="M0,2143.79c3.22-65.84,2.98-129.02,10.02-191.38,17.91-158.56,68.81-306.13,157.93-439.34,107.37-160.49,251.69-279.43,421-369.17,46.69-24.75,95.41-45.84,144.07-66.55,10.35-4.41,26.55-3.89,36.64,1.17,202.82,101.73,405.33,102.88,607.73-.29,14.75-7.52,26.38-8.01,42-1.81,90.11,35.8,178.43,74.64,255.56,134.88,22.16,17.31,29.41,41.78,19.18,64.64-9.46,21.16-32.07,33.32-56.29,28.2-9.46-2-18.97-7.09-26.8-12.97-57.61-43.29-120.71-76.48-188-101.48-11.1-4.12-26.79-4.44-37.48,.17-208.19,89.81-415.82,90.37-623.63-1-7.55-3.32-18.68-5.06-25.72-1.98-213.23,93.21-393.83,225.85-512.7,431.05-75.24,129.88-110.86,271.32-118.05,424.23h30.12c330.28,0,660.55,0,990.83,.02,10.11,0,20.26-.22,30.31,.63,27.51,2.32,46.4,23.04,46.33,50.17-.07,26.94-19.33,48.02-46.4,50.61-4.18,.4-8.42,.2-12.63,.2-373.25,0-746.49,0-1119.74,0-5.83,0-11.65,0-24.25,0Z"/><path class="d" d="M1581.22,505.94c-.04,280.99-226.14,506.42-507.29,505.81-279.86-.61-504.69-226.08-504.6-506.03C569.42,224.63,795.34-.56,1076.69,0c279.89,.56,504.57,225.87,504.53,505.94ZM1076.05,101.34c-222.13-.11-404.85,181.04-405.31,401.81-.46,223.77,180.58,406.95,402.51,407.25,223.55,.3,406.34-180.97,406.57-403.19,.23-223.38-181.21-405.76-403.78-405.87Z"/><path class="d" d="M1328.31,2143.79c0-94.39-1.72-185.26,1.33-275.98,.68-20.3,13.7-44.39,28.5-59.36,145.53-147.32,292.1-293.63,439.56-439.03,59.24-58.41,148.46-57.85,209.62-.88,31.4,29.25,61.45,59.98,91.29,90.84,64.04,66.21,63.86,155.14-1.07,220.65-94.81,95.67-190.36,190.6-285.6,285.84-47.62,47.62-95.5,94.99-142.76,142.96-23.8,24.15-51.52,35.6-85.72,35.24-84.03-.88-168.07-.29-255.13-.29Zm100.89-101.69c53.33,0,102.93,.47,152.5-.52,7.16-.14,15.57-5.86,21.07-11.34,140.83-140.33,281.49-280.84,421.81-421.69,25.03-25.13,25.04-52.64,.79-77.94-26.81-27.96-54.26-55.34-82.11-82.28-26.9-26.02-53.45-26.01-79.69,.03-141.11,140.06-282.05,280.28-422.74,420.74-5.43,5.43-10.97,13.85-11.11,20.98-.96,49.55-.51,99.13-.51,152Z"/></g></g></g></svg>