<?xml version="1.0" encoding="UTF-8"?><svg xmlns="http://www.w3.org/2000/svg" viewBox="0 0 2571.6 2110.75"><defs><style>.d{fill:#8b8a94;}</style></defs><g id="a"/><g id="b"><g id="c"><path class="d" d="M1283.14,357.62c45.95-56.1,86.82-118.56,139.68-168.29C1613.28,10.16,1840.02-42.03,2087.81,33.56c247.43,75.48,409.81,243.5,467.08,498.91,44.61,198.93-2.76,384.72-110.92,554.65-100.13,157.31-227.95,291.7-362.64,419.42-235.58,223.4-494.04,417.55-766.1,594.07-19.79,12.84-38.65,13.86-58.47,.92-307.8-200.92-599.61-421.92-858.17-684.5-101.33-102.91-196.96-210.93-274.4-333.31C32.83,939.32-13.44,781.13,3.42,610.13,26.44,376.63,146.57,202.46,349.85,88.71,629.04-67.52,968.34-11.19,1183.09,224.63c38.16,41.9,68.63,90.81,100.05,132.98Zm49.34,1618.17c9.39-5.53,16.76-9.34,23.58-13.97,203.2-137.94,398.7-285.87,581.49-450.14,151.6-136.25,295.68-279.85,411.2-448.78,105.89-154.85,155.5-325.45,114.89-512.46C2380.58,167.88,1943.07-19.22,1601.9,169.17c-115.58,63.82-193.09,162.66-253.08,276.89-10.1,19.23-15.99,42.62-16.86,64.37-2.31,57.2-.54,114.56-.86,171.86-.23,41.97-25.06,60.56-65.83,49.77-25.75-6.81-51.24-14.7-77.14-20.9-59.84-14.34-118.19,8.35-152.69,58.55-33.81,49.19-32.79,113.25,2.6,163.66,33.87,48.23,92.31,69.88,151.18,55.29,25.85-6.41,51.3-14.42,77.07-21.15,39.29-10.27,64.24,8.33,64.8,48.36,.41,28.64,.08,57.3,.09,85.94,0,55.07,0,110.14,0,166.85,111.88-29.66,206.76-8.71,275.56,84.65,57,77.35,64.08,163.9,17.93,247.94-63.96,116.49-167.39,145.9-292.18,115.15v259.41Zm-96.06-1350.18c1.12-2.28,2.48-3.86,2.63-5.55,8.05-90.27-6.34-171.37-60.26-250.61C1032.17,153.98,800.91,55.34,545.96,110.53,279.53,168.21,83.62,417.68,93.66,688.43c5.08,136.9,47.04,263.34,128.14,373,67.37,91.09,139.26,179.8,217.25,261.88,233.83,246.07,501.36,452.14,781.56,642.31,4.95,3.36,11.03,5.08,18.91,8.6,0-106.25-.12-209.3,.05-312.35,.08-45.82,24.01-63.26,69.01-50.97,24.78,6.77,49.46,13.99,74.41,20.07,58.06,14.15,116.9-8.35,150.68-56.98,34.85-50.19,35.06-113.6,.53-163.64-33.71-48.85-92.21-71.57-150.4-57.54-26.8,6.47-53.15,14.82-79.85,21.73-38.99,10.08-63.93-8.88-64.34-49.02-.4-39.14-.09-78.29-.09-117.44,0-44.45,0-88.89,0-133.92-133.13,25.4-222.53-4.56-281.47-92.5-52.99-79.06-54.99-182.51-.68-261.24,68.82-99.77,165.44-124.38,279.05-94.81Z"/></g></g></svg>