<?xml version="1.0" encoding="UTF-8"?><svg xmlns="http://www.w3.org/2000/svg" viewBox="0 0 2094.73 2095.25"><defs><style>.d{fill:#8b8a94;}</style></defs><g id="a"/><g id="b"><g id="c"><g><path class="d" d="M0,982.42c5.19-37.68,9.14-75.57,15.74-112.99C89.03,454.13,393.28,129.95,803.63,29.35c482.7-118.34,992.4,130.23,1196.57,583.53,196.01,435.19,80.83,938-286.35,1242.55-158.11,131.14-340.41,208.14-544.71,232.31-18.8,2.22-37.54,4.99-56.31,7.5h-130.92c-4.5-1.15-8.95-3.03-13.51-3.36-88.76-6.31-175.68-22.65-259.1-53.55C328.87,1897.43,98.06,1627.51,16.58,1230.27,8.68,1191.78,5.42,1152.34,0,1113.34c0-43.64,0-87.28,0-130.92Zm87.04,65.62c1.54,531.68,432.5,961.62,962.55,960.25,528.41-1.36,960.08-434.14,958.13-960.58-1.98-533.01-432.79-961.88-964.6-960.26-526.71,1.61-957.6,434.53-956.08,960.58Z"/><path class="d" d="M175,1047.3c.77-482.08,390.26-872.01,870.87-871.85,485.09,.16,874.89,390.45,873.86,874.95-1.03,484.61-392.43,870.95-881.07,869.68-475.64-1.24-864.43-394.13-863.66-872.78Zm90.55-43.4c25.83,0,50.23-.81,74.53,.36,11.19,.54,23.59,2.57,32.97,8.11,16.8,9.92,22.75,26.75,18.16,46.01-4.74,19.93-20.7,32.42-43.83,33.17-26.99,.87-54.03,.2-81.07,.2,12.78,401.08,358.6,729.6,737.06,739.14,0-8.03-.04-16.08,0-24.13,.13-21.13-.88-42.35,.77-63.37,1.92-24.43,20.38-40.72,43.12-40.77,22.74-.04,40.56,16.22,43.38,40.63,1.17,10.1,.62,20.42,.66,30.64,.08,19.49,.02,38.98,.02,58.51,431.87-21.41,733.9-389.09,738.61-739-1.26-.4-2.52-1.15-3.79-1.16-23.86-.19-47.72-.14-71.57-.44-32.96-.42-52.76-17.3-52.47-44.41,.29-26.88,20.17-43.12,53.38-43.48,12.27-.13,24.55-.03,36.82-.03,13.25,0,26.5,0,39.87,0-24.81-432.25-386.43-728.73-740.85-736.75,0,23.64,.7,47.3-.3,70.89-.48,11.27-2.21,23.32-6.89,33.39-7.97,17.14-28.92,25.11-46.87,20.55-19.92-5.05-32.77-20.55-33.55-43.58-.92-27.02-.21-54.1-.21-81.16-362.18,8.85-718.08,317.14-737.96,736.67Z"/><path class="d" d="M678.61,1464.14c-32.96-.73-53.32-28.56-45.16-55.85,1.54-5.17,3.99-10.11,6.41-14.97,77.68-156.05,155.82-311.87,232.68-468.32,11.22-22.84,26.48-37.89,48.82-48.94,106.82-52.83,213.22-106.52,319.78-159.88,50.54-25.31,101.08-50.6,151.66-75.83,24.27-12.11,43.36-10.49,58.15,4.7,14.34,14.73,15.94,33.4,4.41,56.56-80.13,160.91-159.83,322.04-241.3,482.27-7.48,14.72-24.68,26.88-40.15,34.78-117,59.76-234.69,118.16-352.18,176.97-40.18,20.11-80.32,40.32-120.66,60.11-8.42,4.13-17.64,6.62-22.46,8.39Zm94.53-146.06c5.12-1.76,7.56-2.3,9.73-3.38,113.75-56.87,227.57-113.61,341-171.09,7.6-3.85,14.08-12.52,18.09-20.45,54.92-108.7,109.33-217.66,163.81-326.58,2.61-5.22,4.84-10.63,8.74-19.26-5.56,2.28-7.82,3.05-9.94,4.11-113.76,56.89-227.59,113.62-341.04,171.11-7.6,3.85-14.06,12.53-18.08,20.47-54.91,108.68-109.3,217.62-163.79,326.51-2.61,5.21-4.88,10.59-8.53,18.57Z"/><path class="d" d="M1047.72,1004.14c23.03,.23,42.94,20.06,43.25,43.06,.32,23.89-20.16,44.49-44.05,44.31-23.01-.17-42.89-19.95-43.27-43.04-.39-23.74,20.32-44.57,44.07-44.33Z"/></g></g></g></svg>